<svg xmlns="http://www.w3.org/2000/svg" xmlns:xlink="http://www.w3.org/1999/xlink" width="500" zoomAndPan="magnify" viewBox="0 0 375 374.999991" height="500" preserveAspectRatio="xMidYMid meet" version="1.0"><path fill="#d2df64" d="M 20.46875 226.199219 C 20.46875 226.199219 158.871094 216.734375 159.820312 365.425781 C 10.988281 364.484375 20.46875 226.199219 20.46875 226.199219 Z M 20.46875 226.199219 " fill-opacity="1" fill-rule="nonzero"/><path fill="#d2df64" d="M 167.914062 373.519531 L 159.773438 373.460938 C 111.761719 373.160156 74.425781 359.011719 48.789062 331.414062 C 8.652344 288.199219 12.273438 228.183594 12.445312 225.65625 L 12.925781 218.679688 L 19.921875 218.183594 C 19.921875 218.183594 21.890625 218.042969 25.375 218.042969 C 49.011719 218.042969 166.972656 225.152344 167.867188 365.371094 Z M 28.457031 234.152344 C 28.90625 250.558594 32.984375 290.839844 60.679688 320.589844 C 81.710938 343.164062 112.265625 355.457031 151.570312 357.1875 C 146.738281 246.957031 60.203125 234.832031 28.457031 234.152344 Z M 28.457031 234.152344 " fill-opacity="1" fill-rule="nonzero"/><path fill="#d2df64" d="M 185.328125 79.882812 C 185.328125 79.882812 289.898438 170.960938 185.328125 276.777344 C 80.765625 170.960938 185.328125 79.882812 185.328125 79.882812 Z M 185.328125 79.882812 " fill-opacity="1" fill-rule="nonzero"/><path fill="#d2df64" d="M 185.328125 288.207031 L 179.609375 282.417969 C 145.875 248.289062 129.484375 211.90625 130.894531 174.28125 C 133.101562 115.367188 178.125 75.492188 180.042969 73.824219 L 185.328125 69.222656 L 190.617188 73.824219 C 192.53125 75.492188 237.558594 115.367188 239.765625 174.28125 C 241.171875 211.90625 224.785156 248.289062 191.050781 282.417969 Z M 185.328125 91.164062 C 174.019531 103.097656 148.425781 134.453125 146.964844 175.023438 C 145.855469 205.851562 158.753906 236.125 185.328125 265.117188 C 211.902344 236.125 224.800781 205.851562 223.695312 175.023438 C 222.234375 134.453125 196.644531 103.097656 185.328125 91.164062 Z M 185.328125 91.164062 " fill-opacity="1" fill-rule="nonzero"/><path fill="#d2df64" d="M 354.082031 226.199219 C 354.082031 226.199219 215.695312 216.734375 214.738281 365.425781 C 363.574219 364.484375 354.082031 226.199219 354.082031 226.199219 Z M 354.082031 226.199219 " fill-opacity="1" fill-rule="nonzero"/><path fill="#d2df64" d="M 206.636719 373.519531 L 206.691406 365.371094 C 207.589844 225.152344 325.546875 218.042969 349.183594 218.042969 C 352.664062 218.042969 354.636719 218.183594 354.636719 218.183594 L 361.609375 218.679688 L 362.113281 225.65625 C 362.285156 228.183594 365.910156 288.191406 325.765625 331.414062 C 300.136719 359.011719 262.796875 373.160156 214.78125 373.460938 Z M 346.125 234.152344 C 314.375 234.832031 227.820312 246.9375 222.980469 357.183594 C 262.359375 355.457031 292.9375 343.125 313.976562 320.472656 C 341.699219 290.632812 345.703125 250.507812 346.125 234.152344 Z M 346.125 234.152344 " fill-opacity="1" fill-rule="nonzero"/><path fill="#298636" d="M 79.328125 268.082031 C 45.652344 213.976562 62.359375 135.519531 62.03125 127.578125 C 61.222656 108.128906 83.476562 129.1875 105.722656 134.292969 C 116.882812 62.058594 171.917969 58.679688 211.625 24.265625 C 227.027344 10.910156 225.289062 0.0273438 231.199219 1.65625 C 233.78125 2.371094 235.359375 4.035156 235.882812 6.675781 C 250.050781 77.703125 253.628906 75.417969 285.5625 132.773438 C 329.644531 211.953125 270.148438 287.933594 219.1875 308.203125 C 195.519531 317.613281 187.347656 306.871094 202.066406 304.46875 C 249.773438 296.6875 307.390625 212.183594 258.785156 130.246094 C 234.6875 89.625 226.953125 77.460938 222.507812 38.863281 C 220.976562 25.550781 222.214844 25.28125 220.519531 27.191406 C 193.1875 58.035156 155.703125 62.15625 133.214844 109.988281 C 127.8125 121.480469 124.609375 135.578125 124.335938 140.148438 C 130.484375 142.238281 139.902344 145.03125 148.960938 149.214844 C 242.992188 192.625 189.941406 312.234375 182.492188 304.527344 C 186.277344 293.441406 187.027344 300.015625 193.382812 276.238281 C 210.34375 212.796875 177.613281 163.167969 123.367188 147.566406 C 120.109375 209.074219 136.9375 239.070312 171.632812 276.207031 C 172.75 277.402344 171.300781 279.363281 169.847656 278.457031 C 129.902344 253.394531 100.351562 193.203125 104.875 141.117188 C 64.617188 131.957031 76.238281 119.386719 80.511719 147.316406 C 84.160156 171.160156 85.796875 339.855469 221.722656 318.953125 C 277.457031 310.378906 298.058594 259.175781 306.644531 237.210938 C 307.625 234.691406 311.425781 235.816406 310.863281 238.464844 C 286.230469 355.109375 134.992188 357.53125 79.328125 268.082031 " fill-opacity="1" fill-rule="nonzero"/><path fill="#298636" d="M 205.273438 278.972656 C 242.742188 220.796875 226.691406 155.8125 202.597656 119.917969 C 190.964844 102.585938 194.296875 99.058594 196.828125 100.546875 C 218.527344 113.296875 238.957031 146.011719 236.277344 197.671875 C 234.078125 239.886719 211.070312 276.640625 206.289062 281.136719 C 205.21875 282.148438 203.089844 282.363281 205.273438 278.972656 " fill-opacity="1" fill-rule="nonzero"/></svg>